<?xml version="1.0" encoding="utf-8"?>
<!-- Generator: Adobe Illustrator 14.0.0, SVG Export Plug-In . SVG Version: 6.00 Build 43363)  -->
<!DOCTYPE svg PUBLIC "-//W3C//DTD SVG 1.1//EN" "http://www.w3.org/Graphics/SVG/1.1/DTD/svg11.dtd">
<svg version="1.1" id="Layer_2" xmlns="http://www.w3.org/2000/svg" xmlns:xlink="http://www.w3.org/1999/xlink" x="0px" y="0px"
	 width="644.836px" height="515.639px" viewBox="0 0 644.836 515.639" enable-background="new 0 0 644.836 515.639"
	 xml:space="preserve">
<path fill-rule="evenodd" clip-rule="evenodd" fill="#b2babd" d="M316.082,259.139c-4.838-0.639-7.072,1.321-10,0
	c1.089-4.375,8.408-8.152,12-4C318.069,257.126,315.353,256.41,316.082,259.139z M327.082,339.139c-0.055,1.278-1.282,1.385-1,3
	c1.496-0.17,3.69,0.357,4-1C328.116,341.438,328.098,339.788,327.082,339.139z M314.082,333.139c2.565-2.627,14.87-4.813,15-2
	c3.448,0.114,2.552-4.114,6-4c0.012,1.009,1.753,1.258,2,0c-6.704-2.192-14.997-2.672-22-2
	C315.574,327.33,312.533,331.057,314.082,333.139z M220.082,194.139c2.871,2.808,6.95-0.136,8,3
	c-0.516,8.128,1.642,14.708,5.588,19.839c-5.011-10.955-6.514-30.959-0.588-37.839c-4.027,1.64-2.67,8.663-8,9
	c1.795-0.129,2.34,0.993,2,3C224.037,191.427,220.256,190.979,220.082,194.139z M313.082,194.139c-2.803,3.393-2.529,8.623-6,7
	c0.122,2.544,1.456,3.878,4,4C311.814,200.118,314.181,197.669,313.082,194.139z M324.013,413.503
	c0.039-0.105,0.067-0.222,0.068-0.364C324.026,413.268,324.009,413.389,324.013,413.503z M295.082,158.139
	c-10.713-8.746-31.524-3.878-44,1c16.492-4.783,32.096,8.712,42,1c-1.44-0.56-2.44-1.56-3-3
	C292.414,156.283,294.39,160.636,295.082,158.139z M199.082,226.139c-0.208-0.621-0.367-1.329-0.503-2.076
	C197.962,224.313,197.852,224.842,199.082,226.139z M183.082,203.139c-1.891,0.224-2.207-1.127-4-1c0,1,0,2,0,3
	C181.361,205.418,182.841,204.898,183.082,203.139z M400.082,295.139c-1.165-0.168-1.086-1.581-1-3c-1,0-2,0-3,0
	C396.148,293.854,399.137,297.594,400.082,295.139z M0,515.639c51.427-40.767,128.161-56.227,190.082-86.5
	c16.196-21.471,8.818-66.515,40-73c-2.416,47.475,29.821,65.434,46,91c1.424-5.208,4.445,7.65,8,5c1.697,0.649,0.625,2.3-1,2
	c1.807,1.526,3.063,3.604,7,3c-0.529,0.805-1.043,1.623-1,3c6.587-1.24,0.415,1.298,8,0c-1.571,2.919-2.632,0.137-3,5
	c2.337-0.309,4.131-1.958,6,0c-0.443-0.891-0.878-1.788-2-2c0.818-2.023,5.272,0.633,7,1c-2.518,0.49-4.685,1.853-5,4
	c2.564,1.404,6.438,2.64,10,2c0.729,4.381-1.987-0.806-2,2c2.057,1.157,5.214,0.197,8,0c-4.243,2.144,0.78,3.671,2,6
	c-0.729,2.239-3.009-2.209-5-2c-0.005,2.395-5.402,3.817-8,4c0.31,1.357,2.504,0.829,4,1c-2.445,3.281-0.622,1.652-5,3
	c4.147,2.374,9.995,4.279,8,10c4.799-0.341,11.408,10.701,12,14c9.561-12.255,29.967-27.246,48-31c2.195-11.135,6.021-18.899,7-34
	c-4.172,4.658-0.935-5.85,3-5c-3.238-1.936-1.25-2.613,1-4c-0.832-3.47-4.498-1.601-1-5c-8.967,1.699-16.281,5.053-26,6
	c0.437-1.23,1.279-2.054,3-2c-0.905-1.731-3.681-2.762-4,0c-2.114-0.309,1.051-3.473,3-3c-1.402-2.913-3.445,1.772-6,1
	c-2.861,1.421,3.806-2.111,4-4c-1.794-0.127-2.109,1.225-4,1c-0.688-2.688,2.067-1.933,3-3c-7.588-12.098-23.653-6.383-37-8
	c0.691-3.135,2.667-1.304,5-1c-0.027-0.973-1.224-0.776-2-1c0.207-1.315,2.52-0.525,2.932-1.636
	c0.049,1.516,4.896,1.632,5.068-2.364c3.235-1.235,0.765,3.235,4,2c2.995-0.658-0.956-2.138,0-4c-4.531-0.539-3.636,0.412-9-5
	c-0.125,0.688-41.788-10.175-14-7c-4.853-1.346-16.617-2.1-18-10c2.291,4.123,2.349,0.883,5,2c2.378-0.294-1.111-2.706-2-3
	c7.817-0.652,25.348,1.285,36-3c1.484,0.437-0.395,1.279,0,3c1.703-3.655,9.098-6.87,9-9c1.489-3.295,2.823,1.7,4,2
	c3.035-4.184,5.075-3.429,9-7c0.467-2.134-1.429-1.904-3-2c1.584-1.799,4.964-6.97,2-10c3.219,0.068,1.29-1.383,4-4
	c-0.294-3.529-2.706,3.529-3,0c-1.092-4.092,6.135,0.135,4-5c-0.658-2.995-2.138,0.956-4,0c2.82-3.014,2.245-3.563,3-9
	c-0.161-1.172-1.823-0.844-3-1c1.287-2.358-0.131-1.86,1-5c-1.446-1.582-2.233,0.102-6,0c-0.602-2.065-1.547-3.787-5-3
	c1.508-5.148-0.171-5.378-4-6c4.158,0.674,8.435-11.767,5-15c1.5-2.326,2.445-1.526,5-1c-1.745-2.039,0.745-1.961-1-4
	c-2.688-0.689-1.933,2.067-3,3c-10.376-4.594-40.953-3.912-63,0c13.946-7.959,33.685-5.905,48-5c0.33-1.764,4.97-4.236,2-6
	c0.314-2.352,4.74-0.593,4-4c2.487,0.404,0.763,4.58-2,3c0.132,2.465,0.151,4.818-1,6c1.862-0.138,3.342-0.658,4-2
	c-0.027-0.973-1.224-0.776-2-1c2.32-1.46,5.027,2.72,6-3c1.759,0.241,2.279,1.721,2,4c1.357-0.31,0.83-2.504,1-4
	c2.323,2.214,2.677,0.883,5,2c1.11,3.14,0.468,2.642-1,5c1.966-0.446,6.185-3.709,8-1c1.438-3.631,2.713-1.219,4-5
	c0.237,3.323,2.432,0.962,4-2c0.096,4.169,6.017,7.142,4,9c1.241,1.479,2.908-2.43,5,1c-0.366-4.344-1.733-3.017-4-4
	c2.576-1.574,3.664-2.474,3-9c-4.529-0.745,1.529,2.745-3,2c-0.723-3.056,1.022-3.644,1-6c-0.084-2.228-2.952-1.671-3.778-3.157
	c-0.054-0.246-0.128-0.525-0.222-0.843c0.013,0.342,0.095,0.615,0.222,0.843c0.823,3.713-2.771-0.459-7.222,1.157
	c1.261-1.336,3.006-1.964,1-4c-1.023,0.977-2.023,1.977-3,3c-1.158-2.146-2.492-2.483-4-6c-0.891,0.615-1.788,1.208-2,0
	c-1.44,0.227-0.349,2.984-2,3c-3.942-0.724-5.865-3.468-8-6c-2.031-0.306,0.205,2.889,1,3c-4.255,1.23-4.431-10.217-12-9
	c2.509-5.824,6.003-10.664,8-17c2.925-7.006-2.893-44.49,0-67c-2.485-3.667-16.567-4.757-20-1c-6.986-7.535-14.852-8.638-27-10
	c4.447,2.687,4.632,9.526,7,14c-1.497,1.753-4.173-0.883-5,3c11.385,1.514-8.579,3.375,0,8c-3.589,3.7-7.895,3.798-11,6
	c0.91-2.445-2.991-4.284-7-2c-2.542-2.609,5.923-2.694,4-8c1.23,0.437,2.054,1.28,2,3c-0.173-3.292,4.039-4.324,7-7
	c-0.01-2.656,0.378-5.711-1-7c-0.386,9.112-20.753,16.936-21-1c-4.978,1.769-9.703,7.261-8,10c-3.685-3.828-6.306,1.285-11,2
	c6.254-9.079,14.352-16.314,29-17c2.479-0.792,1.054-3.345,1.467-3.71c0.503,0.21,1.013,0.441,1.533,0.71
	c-0.974-0.687-1.378-0.847-1.533-0.71c-13.681-5.718-21.612,9.331-31.467,12.71c4.956-6.711,11.275-12.059,21-14
	c-6.972-2.621-17.135,0.185-24,1c32.047-13.551,63.816,7.305,95,4c6.186-25.751,44.493-31.69,64-33
	c-3.488,4.848,1.887-1.685,5.11-0.577c0.26,0.194,0.544,0.387,0.89,0.577c-0.268-0.282-0.568-0.466-0.89-0.577
	c-2.658-1.979-1.439-4.193-7.11-7.423c3.529-3.037-1.014-5.715-1-12c1.547,2.409,2.1,4.273,2-1c-0.271-2.062-4.428-0.238-4-3
	c-0.17-4.217,1.536,0.017,3,0c0.7-4.034-2.051-4.616-3-7c3.955-4.688,3.253-8.049,2-13c4.484-0.342,4.465-2.991,8,0
	c-0.001-4.229-7.177-4.065-7-2c-1.434-1.233-1.895-3.439-2-6c-1.667,0-3.333,0-5,0c5.339-4.605-9.434-12.588-11-18
	c-3.964,2.724-7.266-2.321-11-3c-10.617-2.639-25.494,10.062-39,4c-1.484,0.437,0.395,1.28,0,3c-3.1,1.317-5.547-2.964-7,0
	c-1.269-2.171-0.237-2.225-2-5c-2.572,1.832-4.238-1.142-5,3c-3.436-4.214-8.563-2.316-9-8c-0.89,0.777-2.258,1.075-4,1
	c-2.447-2.358,1.493-1.86,1-5c-2.555,1.112-4.279,3.055-5,6c-2.341-1.447,0.636-5.952,1-8c-0.566-1.46-4.704,1.884-5,4
	c-1.744-0.885,1.024-6.535-2-2c-2.805-1.599,1.404-4.501,0-8c-2.572,0.762-4.238,2.428-5,5c-0.966-4.155-0.428-3.509-6-2
	c1.68-4.438-6.639-2.38-8-3c-0.467,2.134,1.429,1.905,3,2c-1.294,1.402-11.542,0.646-19,1c1.669,2.664,9.221-0.555,11,2
	c-6.886-0.15-24.024,4.28-28,1c-7.892,0.775-11.261,6.073-17,9c1.685,4.356-4.897,13.306-6,20c2.764,1.522,0.522,7.293-2,14
	c0.89-0.443,1.789-0.878,2-2c-0.407,2.405-1.735,11.335,0,13c-0.419,3.248-4.453,2.881-4,7c2.055-0.945,2.066-3.934,5-4
	c0.381,2.296-4.252,6.782,1,8c-2.033,2.634-3.437,5.896-5,9c0.162,1.172,1.823,0.843,3,1c-4.307,9.004-15.596,28.659-12,44
	c-1.133,2.201-6.597,0.069-7,3c-0.367,3.034,3.257,2.076,5,3c-4.131,8.314-0.353,14.202-6,21c4.681,0.033-1.846,8.251,2,11
	c-0.407,0.81-2.557,0.538-3.503,0.924c-1.288-7.077,0.435-19.394,1.503-28.924c-3.098-3.474-12.353-2.081-13-3
	c-3.587-8.664-6.002-23.383-4-32c-0.013-2.35-2.729,0.365-2,2c-3.446-5.608,0.853-11.268-4-14c2.818-2.711-0.671-4.937,2-11
	c-1.419-0.086-2.832-0.165-3,1c4.469-16.555-0.481-35.146,9-49c-1.419-0.086-2.832-0.165-3,1c-0.624-1.76,0.583-3.966,3-6
	c-0.437-1.484-1.28,0.395-3,0c5.294-9.065,14.795-16.584,15-27c6.318-5.465,14.369-8.763,15-17c1.453-1.547,3.9-2.1,7-2
	c-2.07-6.68,7.024-9.203,13-11c-0.65-1.017-2.299-1.034-2-3c4.458-2.542,9.948-4.052,12-9c1.289,1.378,4.344,0.99,7,1
	c-0.43-1.57-3.146-0.854-2-4c2.391,0.609,7.255-1.255,8,1c4.995-4.842,17.594-10.201,25-8c1.759-0.241,2.279-1.721,2-4
	c49.257-0.522,112.01-9.651,139,34c6.316-0.672,8.409,8.898,16,10c0,1.333,0,2.667,0,4c0.903,2.729,2.237-3.042,4,0
	c-0.403,3.851,3.295,3.859,2,7c1.794,0.127,2.109-1.224,4-1c0.424,2.09-0.686,2.648-1,4c0.658,2.995,2.138-0.956,4,0
	c-0.594,3.19,1.877,3.093,0,5c3.363-1.886,3.277,4.527,5,1c-0.658,2.821,5.005,4.566,2,9c3.902-2.798,6.832,5.003,3,7
	c2.779,2.554,4.646,6.021,7,9c0.182,2.182-0.818,3.182-3,3c1.429,3.382,0.915,7.257,7,10c-3.176,11.036-1.123,22.407,0,37
	c-0.81-0.19-0.997-1.003-2-1c3.159,4.674-0.512,12.403,2,19c-1,0-2,0-3,0c-0.067,9.323-0.024,24.401-2,34
	c19.095,15.928-3.719,57.503-8,75c4.928,13.042-12.281,28.304-20,14c-6.584,23.5-18.633,40.718-18,69
	c16.088,18.245,14.91,53.757,32,71c64.404,31.349,139.982,51.521,192.755,94.5H0z M199.082,151.139
	C196,157.13,202.782,156.037,199.082,151.139L199.082,151.139z M239.082,63.139C227.614,70.966,235.375,70.011,239.082,63.139
	L239.082,63.139z M255.082,61.139c-5.181-2.449-9.604,1.644-13,4C247.646,65.036,250.087,61.812,255.082,61.139z M404.082,115.139
	c-1.862,0.138-3.342,0.658-4,2c1.278,0.055,1.385,1.282,3,1C403.039,116.762,403.552,115.943,404.082,115.139z M340.082,190.139
	c-1.063,1.181-0.453,6.33,2,7C342.181,194.039,341.628,191.592,340.082,190.139z M350.082,221.139
	C358.225,233.487,352.59,222.135,350.082,221.139L350.082,221.139z M357.082,252.139c-0.306-3.027-3.094-3.573-2-8
	c-0.606-0.576-4.743-2.34-5,0c4.096-0.188-1.16,4.757-1,7c1.871-0.054,2.117,0.77,1,2c3.541,0.875,2.459,0.125,6,1
	c0.395-1.72-1.484-2.563,0-3C356.138,251.749,356.231,252.323,357.082,252.139z M410.082,291.139c1.526-0.16,4.314-6.241,2-4
	C412.59,289.124,406.564,289.427,410.082,291.139z M419.082,272.139c-2.23-0.136-4.14,5.066-3,5
	C417.789,276.179,418.273,273.997,419.082,272.139z M441.082,252.139c1.617,1.035-2.52,3.965,0,5c0.212-1.208,1.109-0.615,2,0
	C443.4,255.038,443.233,248.477,441.082,252.139z M436.082,201.139c7.74,0.333,13.608,0.563,17-7c-3.897-2.103-11.499-0.501-17-1
	C437.232,195.94,437.232,198.337,436.082,201.139z M412.082,211.139c0.378,3.044-3.635,1.698-4,4c-0.156-1.177,0.172-2.838-1-3
	c-1.387,0.614-0.15,3.85-2,4c-1.754-3.314-3.743-0.188-7-2c-1.002,1.332-1.648,3.018-3,4c-0.221-0.779-0.838-1.163-2-1
	c2.734-5.687-4.625-2.11-4-6c-0.212,1.208-1.109,0.615-2,0c0.475,4.725-1.247,1.863-3,1c2.013,4.887-2.417,5.19-2,8
	c-3.423-1.425-0.471-5.425-2-7c-2.555,0.112-3.5,1.833-5,3c3.555-1.555,0.604,3.396,3,3c1.563-1.496,4.612,4.004,6,6
	c-1.332,1.301-3.019,0.615-4-1c1.721-0.395,2.563,1.484,3,0c-4.152-2.382-3.604,0.796-3,5c-7.032,1.069-9.17-3.441-14,0
	c35.722,12.184,78.612-7.859,59-41c4.448,10.032,1.375,32.721-6,34c2.785-1.434,2.274-3.708,2-7c1.646,2.12,3.118-1.753,2-3
	c-0.111,0.795-3.306,3.031-3,1c0.012-1.322,1.753-0.914,2-2c-1.985,0.509-2.288-5.517-4-2c1.659,1.429,0.188,3.21-2,5
	C414.746,213.142,414.118,211.436,412.082,211.139z M395.082,180.139C401.134,182.58,401.456,176.618,395.082,180.139
	L395.082,180.139z M370.082,170.139c10.984,5.293,60.455,11.329,34,5c1.067-0.933,0.312-3.689,3-3c-0.22,1.257-1.558,2.044,1,2
	c2.922-2.765-5.202-3.548,0-6c-3.314-1.917-4.338-0.332-6-3c1.177-0.157,2.839,0.172,3-1
	C393.181,157.864,378.016,160.544,370.082,170.139z M368.082,182.139c4.041-1.028,18.128,1.111,20-3c-1.721-0.395-2.563,1.484-3,0
	c0.61-0.057,1.184-0.149,1-1C379.182,178.573,369.768,176.492,368.082,182.139z M366.082,193.139c3.576,2.757,9.021,3.645,11,8
	c-0.962-4.789,4.493,0.522,4-2c-6.468-1.199-11.371-3.962-11-12C366.082,186.472,366.061,189.785,366.082,193.139z M370.082,340.139
	c-1.975,1.116-3.652,8.267,0,9C373.653,346.536,375.303,341.927,370.082,340.139z M379.082,337.139c-2.078-0.56-2.119-1.56-1-3
	c-3.264-1.362-2.517,1.143-2-4c-1,0-2,0-3,0c0.225,1.891-1.127,2.206-1,4c1.332,1.001,3.019,1.648,4,3c-5.077-2.026-4.136,5.868-2,3
	c-1.009-0.012-1.258-1.752,0-2c2.908,0.87,1.125,1.497,1,4c1,0,2,0,3,0C378.001,338.413,376.583,338.911,379.082,337.139z
	 M390.082,325.139c-0.585-2.375-1.531-4.655,2-5c1.235-3.236-3.235-0.764-2-4c0.279-2.318,2.671-2.298,4-1
	c-2.226-4.031,1.417-4.777,3-5c-6.513-4.457,1.236-6.559-2.24-9.461c2.662,1.685,1.27-2.08,2.24-2.539c1.124,1.098,3.876,1.098,5,0
	c-1.48-0.186-0.917-2.417-1-4c2.833-7.102,8.896,4.652,11,0c-0.914-1.115-1.859-0.315-5-1c1.242-5.242-5.721-2.279-5-7
	c0.41-1.257,1.289-2.044,3-2c-0.182,2.182,0.818,3.182,3,3c-1.447-3.781,2.748-1.919,2-5c-1.272-2.395-3.651-3.682-3-8
	c4.676,0.345,1.286-2.482,5-4c1.171,3.16-0.622,4.39,1,8c-2.63,0.296-0.787-3.879-4-3c1.131,3.14-0.287,2.642,1,5
	c5.798-0.202,2.974-9.026,7-11c-2.503-1.32-3.131,3.954-4,1c1.733-3.872-0.036-4.701,0-12c1.479-0.521,2.521-1.479,4-2
	c-0.207,4.013,0.254,4.473,2,2c-0.575,1.758,1.209,5.875-1,6c-2.483-2.715-1.635,1.019,1,1c2.512-3.242,0.297-8.44-1-11
	c-2.984,0.016-3.4,2.6-6,3c0.003-1.003-0.81-1.19-1-2c4.541-2.695,8.607-3.965,10,0c-0.604-3.727,2.557-6.325,0-9
	c5.018-1.162,8.814-8.945,5-13c-0.171,1.496,0.357,3.69-1,4c0.261-2.197-0.69-7.125,0.842-6.793
	c0.283,0.367,0.661,0.646,1.158,0.793c-0.496-0.499-0.867-0.73-1.158-0.793c-2.256-2.916,1.777-11.683,5.158-9.207
	c-1.321-3.771,0.304-4.475-1.543-4.908c0.206-0.759,0.37-1.549,0.49-2.371c0.982-2.278,2.018-5.17,0.053-6.721
	c0.28,2.453,0.244,4.683-0.053,6.721c-0.386,0.893-0.763,1.694-0.947,2.279c0.174,0.03,0.322,0.06,0.457,0.092
	c-6.308,23.218-51.762,17.103-68.705,14.045c4.595,1.117,2.191,6.774,6.248,1.863c-1.897,2.163-1.185,6.22-2,7
	c-1.427-0.239-1.687-1.647-3-2c-1.235,3.236,3.235,0.764,2,4c-1.003,0.003-1.19-0.81-2-1c2.627,3.167-3.688,5.083,1,7
	c-0.043-1.063,0.471-2.54,1-1c-0.097,3.729-3.903,0.068-4,2c5.055,3.002,1.289,10.654,3,14c-0.739-4.208,3.236-3.163,4-1
	c-5.146,2.625,4.035,4.265,2,10c-2.57-2.659-1.43,1.924-4,2c-0.003-1.003,0.81-1.19,1-2c-3.082,3.387-2.845,3.327-6,3
	c1.406,0.261,1.14,2.193,2,3c7.829-2.854,11.584,11.22,16,9c-0.324,4.646,5.136,10.394,10,13c-3.141-0.474-4.086,1.247-5,3
	c2.333,0.334,4.309,1.025,5,3c-4.245-3.005-3.244,6.342-6,8c-2.704-3.887-0.174-0.271-2,1c-1.184-0.293-3.777-4.028-5-1
	c3.016-0.921,2.604,6.601,2,6c-1.278-0.055-1.385-1.282-3-1c1.99,3.689-0.826,7.64,1,10c2.478-3.067-0.015-4.887,2-8
	c2.466,1.534,5.112,2.887,7,5c-1.885,1.991-0.938,4.271-2,5c-0.294-0.889-2.706-4.378-3-2c2.578,0.241-1.373,1.721,0,4
	c0.776,0.224,1.973,0.027,2,1c-2.487-0.943-0.292,5.723,0,2c1.11-3.14,0.468-2.642-1-5
	C384.464,333.008,385.503,325.265,390.082,325.139z M306.082,476.139c2.874,0.207,5.08-0.254,6-2
	C309.521,474.244,307.314,474.705,306.082,476.139z M394.841,300.678c-0.212-0.177-0.459-0.356-0.76-0.539
	C394.371,300.366,394.615,300.534,394.841,300.678z M316.082,189.139c1.663,41.683-44.59,46.37-76.758,33.388
	C265.366,242.164,326.548,227.178,316.082,189.139z M239.323,222.527c-2.141-1.614-4.047-3.46-5.654-5.549
	c0.733,1.603,1.541,3.015,2.412,4.161C237.144,221.622,238.226,222.084,239.323,222.527z M440.082,200.139
	c4.605,0.908,2.986-8.912,0-5C443.012,195.986,439.484,198.358,440.082,200.139z M201.082,226.139c-2.93,2.011-0.834,8.957,2,11
	C202.081,233.006,203.185,230.473,201.082,226.139z"/>
</svg>
